<?xml version="1.0" encoding="utf-8"?>
<svg xmlns="http://www.w3.org/2000/svg" xmlns:xlink="http://www.w3.org/1999/xlink" style="margin: auto; background: none; display: block; shape-rendering: auto;" width="110px" height="110px" viewBox="0 0 100 100" preserveAspectRatio="xMidYMid">
<g transform="rotate(0 50 50)">
  <rect x="44" y="29.5" rx="6" ry="5.5" width="12" height="11" fill="#0a66c2">
    <animate attributeName="opacity" values="1;0" keyTimes="0;1" dur="0.7874015748031495s" begin="-0.7627952755905512s" repeatCount="indefinite"></animate>
  </rect>
</g><g transform="rotate(11.25 50 50)">
  <rect x="44" y="29.5" rx="6" ry="5.5" width="12" height="11" fill="#0a66c2">
    <animate attributeName="opacity" values="1;0" keyTimes="0;1" dur="0.7874015748031495s" begin="-0.7381889763779528s" repeatCount="indefinite"></animate>
  </rect>
</g><g transform="rotate(22.5 50 50)">
  <rect x="44" y="29.5" rx="6" ry="5.5" width="12" height="11" fill="#0a66c2">
    <animate attributeName="opacity" values="1;0" keyTimes="0;1" dur="0.7874015748031495s" begin="-0.7135826771653543s" repeatCount="indefinite"></animate>
  </rect>
</g><g transform="rotate(33.75 50 50)">
  <rect x="44" y="29.5" rx="6" ry="5.5" width="12" height="11" fill="#0a66c2">
    <animate attributeName="opacity" values="1;0" keyTimes="0;1" dur="0.7874015748031495s" begin="-0.6889763779527559s" repeatCount="indefinite"></animate>
  </rect>
</g><g transform="rotate(45 50 50)">
  <rect x="44" y="29.5" rx="6" ry="5.5" width="12" height="11" fill="#0a66c2">
    <animate attributeName="opacity" values="1;0" keyTimes="0;1" dur="0.7874015748031495s" begin="-0.6643700787401575s" repeatCount="indefinite"></animate>
  </rect>
</g><g transform="rotate(56.25 50 50)">
  <rect x="44" y="29.5" rx="6" ry="5.5" width="12" height="11" fill="#0a66c2">
    <animate attributeName="opacity" values="1;0" keyTimes="0;1" dur="0.7874015748031495s" begin="-0.639763779527559s" repeatCount="indefinite"></animate>
  </rect>
</g><g transform="rotate(67.5 50 50)">
  <rect x="44" y="29.5" rx="6" ry="5.5" width="12" height="11" fill="#0a66c2">
    <animate attributeName="opacity" values="1;0" keyTimes="0;1" dur="0.7874015748031495s" begin="-0.6151574803149606s" repeatCount="indefinite"></animate>
  </rect>
</g><g transform="rotate(78.75 50 50)">
  <rect x="44" y="29.5" rx="6" ry="5.5" width="12" height="11" fill="#0a66c2">
    <animate attributeName="opacity" values="1;0" keyTimes="0;1" dur="0.7874015748031495s" begin="-0.5905511811023622s" repeatCount="indefinite"></animate>
  </rect>
</g><g transform="rotate(90 50 50)">
  <rect x="44" y="29.5" rx="6" ry="5.5" width="12" height="11" fill="#0a66c2">
    <animate attributeName="opacity" values="1;0" keyTimes="0;1" dur="0.7874015748031495s" begin="-0.5659448818897638s" repeatCount="indefinite"></animate>
  </rect>
</g><g transform="rotate(101.25 50 50)">
  <rect x="44" y="29.5" rx="6" ry="5.5" width="12" height="11" fill="#0a66c2">
    <animate attributeName="opacity" values="1;0" keyTimes="0;1" dur="0.7874015748031495s" begin="-0.5413385826771654s" repeatCount="indefinite"></animate>
  </rect>
</g><g transform="rotate(112.5 50 50)">
  <rect x="44" y="29.5" rx="6" ry="5.5" width="12" height="11" fill="#0a66c2">
    <animate attributeName="opacity" values="1;0" keyTimes="0;1" dur="0.7874015748031495s" begin="-0.5167322834645669s" repeatCount="indefinite"></animate>
  </rect>
</g><g transform="rotate(123.75 50 50)">
  <rect x="44" y="29.5" rx="6" ry="5.5" width="12" height="11" fill="#0a66c2">
    <animate attributeName="opacity" values="1;0" keyTimes="0;1" dur="0.7874015748031495s" begin="-0.4921259842519685s" repeatCount="indefinite"></animate>
  </rect>
</g><g transform="rotate(135 50 50)">
  <rect x="44" y="29.5" rx="6" ry="5.5" width="12" height="11" fill="#0a66c2">
    <animate attributeName="opacity" values="1;0" keyTimes="0;1" dur="0.7874015748031495s" begin="-0.4675196850393701s" repeatCount="indefinite"></animate>
  </rect>
</g><g transform="rotate(146.25 50 50)">
  <rect x="44" y="29.5" rx="6" ry="5.5" width="12" height="11" fill="#0a66c2">
    <animate attributeName="opacity" values="1;0" keyTimes="0;1" dur="0.7874015748031495s" begin="-0.44291338582677164s" repeatCount="indefinite"></animate>
  </rect>
</g><g transform="rotate(157.5 50 50)">
  <rect x="44" y="29.5" rx="6" ry="5.5" width="12" height="11" fill="#0a66c2">
    <animate attributeName="opacity" values="1;0" keyTimes="0;1" dur="0.7874015748031495s" begin="-0.4183070866141732s" repeatCount="indefinite"></animate>
  </rect>
</g><g transform="rotate(168.75 50 50)">
  <rect x="44" y="29.5" rx="6" ry="5.5" width="12" height="11" fill="#0a66c2">
    <animate attributeName="opacity" values="1;0" keyTimes="0;1" dur="0.7874015748031495s" begin="-0.39370078740157477s" repeatCount="indefinite"></animate>
  </rect>
</g><g transform="rotate(180 50 50)">
  <rect x="44" y="29.5" rx="6" ry="5.5" width="12" height="11" fill="#0a66c2">
    <animate attributeName="opacity" values="1;0" keyTimes="0;1" dur="0.7874015748031495s" begin="-0.3690944881889764s" repeatCount="indefinite"></animate>
  </rect>
</g><g transform="rotate(191.25 50 50)">
  <rect x="44" y="29.5" rx="6" ry="5.5" width="12" height="11" fill="#0a66c2">
    <animate attributeName="opacity" values="1;0" keyTimes="0;1" dur="0.7874015748031495s" begin="-0.34448818897637795s" repeatCount="indefinite"></animate>
  </rect>
</g><g transform="rotate(202.5 50 50)">
  <rect x="44" y="29.5" rx="6" ry="5.5" width="12" height="11" fill="#0a66c2">
    <animate attributeName="opacity" values="1;0" keyTimes="0;1" dur="0.7874015748031495s" begin="-0.3198818897637795s" repeatCount="indefinite"></animate>
  </rect>
</g><g transform="rotate(213.75 50 50)">
  <rect x="44" y="29.5" rx="6" ry="5.5" width="12" height="11" fill="#0a66c2">
    <animate attributeName="opacity" values="1;0" keyTimes="0;1" dur="0.7874015748031495s" begin="-0.2952755905511811s" repeatCount="indefinite"></animate>
  </rect>
</g><g transform="rotate(225 50 50)">
  <rect x="44" y="29.5" rx="6" ry="5.5" width="12" height="11" fill="#0a66c2">
    <animate attributeName="opacity" values="1;0" keyTimes="0;1" dur="0.7874015748031495s" begin="-0.2706692913385827s" repeatCount="indefinite"></animate>
  </rect>
</g><g transform="rotate(236.25 50 50)">
  <rect x="44" y="29.5" rx="6" ry="5.5" width="12" height="11" fill="#0a66c2">
    <animate attributeName="opacity" values="1;0" keyTimes="0;1" dur="0.7874015748031495s" begin="-0.24606299212598426s" repeatCount="indefinite"></animate>
  </rect>
</g><g transform="rotate(247.5 50 50)">
  <rect x="44" y="29.5" rx="6" ry="5.5" width="12" height="11" fill="#0a66c2">
    <animate attributeName="opacity" values="1;0" keyTimes="0;1" dur="0.7874015748031495s" begin="-0.22145669291338582s" repeatCount="indefinite"></animate>
  </rect>
</g><g transform="rotate(258.75 50 50)">
  <rect x="44" y="29.5" rx="6" ry="5.5" width="12" height="11" fill="#0a66c2">
    <animate attributeName="opacity" values="1;0" keyTimes="0;1" dur="0.7874015748031495s" begin="-0.19685039370078738s" repeatCount="indefinite"></animate>
  </rect>
</g><g transform="rotate(270 50 50)">
  <rect x="44" y="29.5" rx="6" ry="5.5" width="12" height="11" fill="#0a66c2">
    <animate attributeName="opacity" values="1;0" keyTimes="0;1" dur="0.7874015748031495s" begin="-0.17224409448818898s" repeatCount="indefinite"></animate>
  </rect>
</g><g transform="rotate(281.25 50 50)">
  <rect x="44" y="29.5" rx="6" ry="5.5" width="12" height="11" fill="#0a66c2">
    <animate attributeName="opacity" values="1;0" keyTimes="0;1" dur="0.7874015748031495s" begin="-0.14763779527559054s" repeatCount="indefinite"></animate>
  </rect>
</g><g transform="rotate(292.5 50 50)">
  <rect x="44" y="29.5" rx="6" ry="5.5" width="12" height="11" fill="#0a66c2">
    <animate attributeName="opacity" values="1;0" keyTimes="0;1" dur="0.7874015748031495s" begin="-0.12303149606299213s" repeatCount="indefinite"></animate>
  </rect>
</g><g transform="rotate(303.75 50 50)">
  <rect x="44" y="29.5" rx="6" ry="5.5" width="12" height="11" fill="#0a66c2">
    <animate attributeName="opacity" values="1;0" keyTimes="0;1" dur="0.7874015748031495s" begin="-0.09842519685039369s" repeatCount="indefinite"></animate>
  </rect>
</g><g transform="rotate(315 50 50)">
  <rect x="44" y="29.5" rx="6" ry="5.5" width="12" height="11" fill="#0a66c2">
    <animate attributeName="opacity" values="1;0" keyTimes="0;1" dur="0.7874015748031495s" begin="-0.07381889763779527s" repeatCount="indefinite"></animate>
  </rect>
</g><g transform="rotate(326.25 50 50)">
  <rect x="44" y="29.5" rx="6" ry="5.5" width="12" height="11" fill="#0a66c2">
    <animate attributeName="opacity" values="1;0" keyTimes="0;1" dur="0.7874015748031495s" begin="-0.049212598425196846s" repeatCount="indefinite"></animate>
  </rect>
</g><g transform="rotate(337.5 50 50)">
  <rect x="44" y="29.5" rx="6" ry="5.5" width="12" height="11" fill="#0a66c2">
    <animate attributeName="opacity" values="1;0" keyTimes="0;1" dur="0.7874015748031495s" begin="-0.024606299212598423s" repeatCount="indefinite"></animate>
  </rect>
</g><g transform="rotate(348.75 50 50)">
  <rect x="44" y="29.5" rx="6" ry="5.5" width="12" height="11" fill="#0a66c2">
    <animate attributeName="opacity" values="1;0" keyTimes="0;1" dur="0.7874015748031495s" begin="0s" repeatCount="indefinite"></animate>
  </rect>
</g>
<!-- [ldio] generated by https://loading.io/ --></svg>